<svg xmlns="http://www.w3.org/2000/svg" viewBox="0 0 868.32 481.13"><defs><style>.cls-1{fill:#f6f5f5;}.cls-2{fill:#dadada;}.cls-3{fill:#86a7ff;}.cls-4{fill:#fff;}.cls-5{fill:#3a6bea;}.cls-15,.cls-6{fill:#1f3c88;}.cls-7{fill:#d3dfff;}.cls-8{fill:#102048;}.cls-9{fill:#fbc343;}.cls-10{fill:#e5ecff;}.cls-11{fill:#e28b6d;}.cls-12{fill:#e49b31;}.cls-13,.cls-17{fill:#eb5d60;}.cls-13{opacity:0.4;}.cls-14{opacity:0.8;}.cls-15{opacity:0.6;}.cls-16{fill:#f9b384;}</style></defs><title>illustration</title><g id="Layer_2" data-name="Layer 2"><g id="Layer_1-2" data-name="Layer 1"><path class="cls-1" d="M787.62,258.27c-53.72-52.33-146.28-49.46-209.86-13.77-83,46.58-183.68,35.55-271.85-.47-61.64-25.18-133.41-32-188.8,37.28C76.56,332.05,54.73,400,80.35,458.78a79.49,79.49,0,0,0,5.23,9.91H805.05C840.18,396.44,838.76,308.08,787.62,258.27Z"/><path class="cls-2" d="M79.58,459.08C62.85,416.5,56.06,377.85,59.41,344.19c3-29.72,13.66-55,31.81-75.12,17.32-19.21,40.89-32.91,68.18-39.62,25.11-6.18,52-6,75.68.62,35.73,9.92,59.5,32.51,65.22,61.95l-1.64.32c-5.6-28.8-28.94-50.91-64-60.66-23.42-6.5-50-6.72-74.83-.61-27,6.64-50.25,20.16-67.34,39.12C74.56,290.05,64,315,61.08,344.35c-3.32,33.39,3.42,71.79,20,114.12Z"/><path class="cls-2" d="M821.75,445.36l-1.67-.18a235.62,235.62,0,0,0-2.8-70.82,197.34,197.34,0,0,0-21.83-59,189.89,189.89,0,0,0-84.59-78,197,197,0,0,0-55.59-16.77,194.62,194.62,0,0,0-58.48.26c-41.1,6.47-78.72,26.05-108.78,56.64l-1.19-1.17c30.31-30.85,68.25-50.6,109.71-57.12a196.37,196.37,0,0,1,59-.27,199,199,0,0,1,56.05,16.92,191.51,191.51,0,0,1,85.33,78.72,198.57,198.57,0,0,1,22,59.52A237,237,0,0,1,821.75,445.36Z"/><polygon class="cls-3" points="549.6 87.94 538.1 87.94 538.1 76.44 533.21 76.44 533.21 87.94 521.71 87.94 521.71 92.82 533.21 92.82 533.21 104.32 538.1 104.32 538.1 92.82 549.6 92.82 549.6 87.94"/><polygon class="cls-3" points="408.89 109.64 399.4 109.64 399.4 100.15 395.37 100.15 395.37 109.64 385.88 109.64 385.88 113.67 395.37 113.67 395.37 123.16 399.4 123.16 399.4 113.67 408.89 113.67 408.89 109.64"/><polygon class="cls-3" points="446.09 8.28 437.81 8.28 437.81 0 434.3 0 434.3 8.28 426.02 8.28 426.02 11.8 434.3 11.8 434.3 20.08 437.81 20.08 437.81 11.8 446.09 11.8 446.09 8.28"/><circle class="cls-3" cx="469.76" cy="132.76" r="34.31" transform="translate(43.72 371.05) rotate(-45)"/><path class="cls-4" d="M473.67,149.78V155H467v-5c-4.74-.29-9.34-1.57-12.18-3.32l3.6-8.16a22.76,22.76,0,0,0,11,3c3.18,0,4.32-.67,4.32-1.81,0-4.17-18.35-.8-18.35-13.18,0-5.36,3.89-9.86,11.66-11v-5.17h6.69v5.07a24.87,24.87,0,0,1,9.62,2.76l-3.36,8.1a20.51,20.51,0,0,0-9.25-2.46c-3.27,0-4.32,1-4.32,2.08,0,4,18.35.67,18.35,12.9C484.71,144,481,148.5,473.67,149.78Z"/><circle class="cls-3" cx="413.21" cy="62.39" r="17.76" transform="translate(257.56 450.22) rotate(-76.72)"/><path class="cls-4" d="M415.24,71.2v2.73h-3.46V71.32a14.52,14.52,0,0,1-6.31-1.71l1.87-4.22A11.87,11.87,0,0,0,413,67c1.64,0,2.23-.35,2.23-.94,0-2.16-9.5-.41-9.5-6.82,0-2.77,2-5.1,6-5.67V50.86h3.46v2.62a12.74,12.74,0,0,1,5,1.43l-1.74,4.19a10.6,10.6,0,0,0-4.79-1.27c-1.69,0-2.23.49-2.23,1.08,0,2.06,9.5.34,9.5,6.67C421,68.23,419,70.54,415.24,71.2Z"/><circle class="cls-3" cx="486.86" cy="52.6" r="21.93"/><path class="cls-4" d="M489.36,63.48v3.37h-4.27V63.63a17.76,17.76,0,0,1-7.79-2.12l2.3-5.21a14.58,14.58,0,0,0,7,1.94c2,0,2.76-.43,2.76-1.15,0-2.67-11.73-.52-11.73-8.43,0-3.43,2.48-6.31,7.46-7V38.35h4.27V41.6a15.75,15.75,0,0,1,6.15,1.75l-2.15,5.19A13.1,13.1,0,0,0,487.45,47c-2.09,0-2.76.61-2.76,1.33,0,2.55,11.73.43,11.73,8.25C496.42,59.81,494.06,62.66,489.36,63.48Z"/><path class="cls-3" d="M66.2,466.13c-2.68,3.18-41.09-95.91-24-98.47S72.21,459,66.2,466.13Z"/><path class="cls-5" d="M67.81,465.13S36.87,387.52,24.14,403.5C13.76,416.53,55.93,465.52,67.81,465.13Z"/><path class="cls-5" d="M65.84,465.46s-3.79-74.81,6.51-74.92C93.5,390.33,75.73,462.09,65.84,465.46Z"/><path class="cls-6" d="M73.43,463.72s-9.25-.66-12.37-3.56c-7.93-7.35-25.61-20.27-29.75-12.63C25.54,458.18,41.88,478.19,73.43,463.72Z"/><path class="cls-6" d="M58.37,468s7.32-3.31,8.55-5.93c4.51-9.57,16.31-27.2,24.07-24.94C103.31,440.76,93.86,472.79,58.37,468Z"/><path class="cls-3" d="M819.52,467.08c3.27,2.52,23.77-89.38,5.67-89.85C807.25,376.77,812.2,461.42,819.52,467.08Z"/><path class="cls-5" d="M819.25,468.46s14.6-74.24,30.25-61.46C862.26,417.42,831.59,467.57,819.25,468.46Z"/><path class="cls-6" d="M820.33,468.69s-12-69.08-22.67-68.09C775.77,402.62,804.15,469.15,820.33,468.69Z"/><rect class="cls-3" x="151.33" y="308.91" width="32.66" height="159.78"/><rect class="cls-7" x="183.98" y="308.91" width="112.81" height="159.78"/><rect class="cls-5" x="183.24" y="308.91" width="1.49" height="159.78"/><rect class="cls-3" x="379.62" y="187.87" width="32.66" height="280.31"/><rect class="cls-7" x="412.29" y="187.87" width="112.81" height="280.31"/><rect class="cls-5" x="411.54" y="187.87" width="1.49" height="280.31"/><rect class="cls-3" x="594.54" y="367.58" width="32.66" height="101.44"/><rect class="cls-7" x="627.2" y="367.58" width="112.81" height="101.44"/><polygon class="cls-8" points="624.91 432.83 629.92 468.69 585.36 468.69 605.93 451.81 605.66 433.88 624.91 432.83"/><path class="cls-6" d="M594.92,331.34s-47.35,0,7.28,112h20.95Z"/><polygon class="cls-6" points="640.18 432.83 645.19 468.69 600.63 468.69 621.2 451.81 620.93 433.88 640.18 432.83"/><path class="cls-5" d="M695.39,322.23s23.54,63.45-64.48,45.24L646.8,443.6l-32.62-.28s-52.34-91.65-19.26-112Z"/><path class="cls-4" d="M619.42,433.87c-6.61,0-10.89-.1-11-.1a.63.63,0,1,1,0-1.26c.17,0,17.35.41,36.34-.42a.63.63,0,0,1,.66.6.64.64,0,0,1-.6.66C635.28,433.76,626.14,433.87,619.42,433.87Z"/><path class="cls-4" d="M625.75,423.44c-9.93,0-20.32-.51-21.08-.55a.63.63,0,1,1,.06-1.25c.08,0,8.46.42,17.34.52,14.73.17,19.46-.61,20.83-1.29a.62.62,0,0,1,.84.28.63.63,0,0,1-.28.84C641.2,423.12,633.62,423.44,625.75,423.44Z"/><path class="cls-4" d="M628.4,459a.61.61,0,0,1-.42-.16l-7.21-6.56a.63.63,0,0,1,.85-.93l7.2,6.56a.62.62,0,0,1,0,.89A.63.63,0,0,1,628.4,459Z"/><path class="cls-9" d="M651.07,248.47s-38.89-6.92-46.23,78.62l94.49-4.56s14.57-58.58-31-73.45Z"/><rect class="cls-10" x="594.02" y="328.66" width="44.01" height="7.08"/><path class="cls-11" d="M641.36,317.68s-22.16-4.1-29.75-.23c-6.6,3.37-5.08,6.75-2.58,6.15l-.18.89a2.8,2.8,0,0,0,2.78,3.38h0a15,15,0,0,1,4,.49c6.18,1.64,25.46,6.55,30,5.41l3.41-4.86Z"/><path class="cls-9" d="M645.61,333.77S687.5,345,699.33,322.53l-19.73-14s-14.26,10-38.24,9.11Z"/><polygon class="cls-8" points="620.9 335.74 570.08 335.74 555.06 285.43 605.88 285.43 620.9 335.74"/><path class="cls-12" d="M641.36,318.51a.83.83,0,0,1-.12-1.66c.36-.05,36.41-5.44,44.88-8.45a.84.84,0,0,1,.56,1.58c-8.62,3.06-43.71,8.3-45.2,8.53Z"/><path class="cls-12" d="M623.94,316a.85.85,0,0,1-.84-.77c0-.09-.71-8.9-.54-20.18.15-10.43,1.1-25.18,4.77-36.2a.83.83,0,1,1,1.58.52c-6.89,20.74-4.17,55.37-4.14,55.72a.83.83,0,0,1-.76.9Z"/><path class="cls-12" d="M651.6,263a13.76,13.76,0,0,1-5.21-1,.83.83,0,1,1,.69-1.52A12,12,0,0,0,660,257.9a.84.84,0,1,1,1.15,1.22A13.6,13.6,0,0,1,651.6,263Z"/><path class="cls-12" d="M677.76,312h-.11a.83.83,0,0,1-.72-.93c2.44-18.74-7.34-37-7.44-37.14a.84.84,0,0,1,1.47-.8c.1.19,10.14,18.87,7.62,38.15A.83.83,0,0,1,677.76,312Z"/><path class="cls-11" d="M660.62,247.07a7.63,7.63,0,0,1-15,2.11c0-.14-.08-.27-.12-.42l-2.13-9.36-.12-.52,8.76-8.66L657.7,233l2.73,12.36A8,8,0,0,1,660.62,247.07Z"/><path class="cls-8" d="M651,239.4s-.63,4.25-5.36,9.78c0-.14-.08-.27-.12-.42l-2.13-9.36Z"/><path class="cls-11" d="M629.21,217.9s-1.46,37.77,21.81,21.5l5.52-10.23-8.55-14Z"/><path class="cls-8" d="M629.58,218.92s2.27,4.25,16.87,3c0,0,1.47,15.11,10.51,18l7-1.39c3.2-31.71-9.6-39.78-25.18-33.1-17.11-6.68-24.21,11.6-9.23,19.87A50.77,50.77,0,0,1,629.58,218.92Z"/><path class="cls-8" d="M657,240s-4,28.66,6.82,26.71,13.21-17.81.14-28.1Z"/><ellipse class="cls-9" cx="660.26" cy="239.58" rx="6.07" ry="1.65" transform="translate(-40.52 192.15) rotate(-16.07)"/><path class="cls-8" d="M631.31,228a.92.92,0,0,0,1.84,0,.92.92,0,1,0-1.84,0Z"/><circle class="cls-8" cx="638.02" cy="226.96" r="1.05"/><path class="cls-8" d="M634.57,233.6a3.44,3.44,0,0,1-.52,0,1.64,1.64,0,0,1-1.15-.66,1.29,1.29,0,0,1-.2-1c.23-1.07,1.64-2,1.92-2.15a.42.42,0,1,1,.44.71c-.66.41-1.43,1.08-1.54,1.61a.48.48,0,0,0,.07.39.84.84,0,0,0,.58.3,1.86,1.86,0,0,0,1-.06.42.42,0,1,1,.33.77A2.41,2.41,0,0,1,634.57,233.6Z"/><path class="cls-8" d="M635.81,237.12a4.18,4.18,0,0,1-1.38-.24.43.43,0,0,1-.26-.53.42.42,0,0,1,.53-.26,3.88,3.88,0,0,0,4.1-1.3.42.42,0,1,1,.66.52A5.15,5.15,0,0,1,635.81,237.12Z"/><path class="cls-8" d="M636.27,224.5c.55.71,1.16.37,2.86.32.39,0,2.5.06,2.4-.44s-1.33-1-2.75-1.09a5.33,5.33,0,0,0-2.1.29,1.2,1.2,0,0,0-.43.24A.48.48,0,0,0,636.27,224.5Z"/><path class="cls-8" d="M633.67,224.62c-.21.75-.8.61-2.14,1-.31.08-1.93.66-2,.2s.72-1.21,1.8-1.6a4.07,4.07,0,0,1,1.74-.25.81.81,0,0,1,.41.11A.46.46,0,0,1,633.67,224.62Z"/><circle class="cls-13" cx="644.1" cy="230.98" r="2.53"/><path class="cls-4" d="M731.51,130a38.53,38.53,0,0,0-33.69,57.22l-8.07,19.65,18.93-7.35A38.51,38.51,0,1,0,731.51,130Z"/><path class="cls-3" d="M688.23,208.38l8.67-21.09a39.57,39.57,0,1,1,11.66,13.2Zm20.58-9.78.37.27a37.56,37.56,0,1,0-10.63-12l.2.35-7.49,18.23Z"/><path class="cls-3" d="M713.74,161.67c0-5.44,3.32-8.9,8-8.9s8,3.41,8,8.9-3.28,8.91-8,8.91S713.74,167.12,713.74,161.67Zm11.39,0c0-3.46-1.33-5.12-3.36-5.12s-3.37,1.71-3.37,5.12,1.38,5.13,3.37,5.13S725.13,165.14,725.13,161.67ZM741,153.14h5.49l-22,32.29H719Zm-5.31,23.76c0-5.45,3.33-8.91,8-8.91s8,3.46,8,8.91-3.32,8.9-8,8.9S735.69,182.34,735.69,176.9Zm11.35,0c0-3.42-1.34-5.12-3.36-5.12s-3.37,1.66-3.37,5.12,1.38,5.12,3.37,5.12S747,180.31,747,176.9Z"/><polygon class="cls-8" points="278.96 422.23 283.6 468.92 329.1 468.42 308.42 447.19 303.7 421.33 278.96 422.23"/><path class="cls-4" d="M317,458.77c-3.77,0-6.49-1-8.08-3.1-2.7-3.46-1.15-8.45-1.08-8.67a.62.62,0,0,1,.79-.4.63.63,0,0,1,.41.79s-1.42,4.58.87,7.52c1.52,1.95,4.35,2.81,8.4,2.56a.63.63,0,1,1,.08,1.25C317.89,458.75,317.43,458.77,317,458.77Z"/><polygon class="cls-8" points="204.45 421.46 197.25 445.45 177.47 481.13 218.54 467.34 227.54 422.06 204.45 421.46"/><path class="cls-4" d="M188.67,462.35a.63.63,0,0,1-.11-1.25c6.05-1,9.67-3.08,10.77-6.08,1.54-4.25-2.51-9.12-2.55-9.17a.61.61,0,0,1,.07-.88.63.63,0,0,1,.88.07c.19.23,4.57,5.48,2.78,10.41-1.26,3.45-5.21,5.77-11.74,6.89Z"/><path class="cls-5" d="M306,258l6,167.69a10.3,10.3,0,0,1-9.84,10.66l-21,.91a10.29,10.29,0,0,1-10.73-9.76l-9.22-179.74Z"/><path class="cls-5" d="M286.92,248.57l-1.52,5.3L282.47,264,234,432.24a8.6,8.6,0,0,1-8.78,6.19l-26-1.63a8.59,8.59,0,0,1-7.78-10.69l38-148.43,5-19.53,37.81-6.89Z"/><g class="cls-14"><path class="cls-4" d="M294,257.49c.1,1.29,10.37,130.29,4.47,178.16l1.25.15c5.91-48-4.37-177.12-4.47-178.42Z"/><path class="cls-4" d="M247.81,256.5c-2,6.53-50,160-47.77,179.3l1.25-.15c-2.2-19,47.22-177.18,47.72-178.77Z"/></g><polygon class="cls-15" points="305.98 257.95 282.47 264.01 229.38 277.68 234.37 258.15 272.18 251.26 285.4 253.87 305.98 257.95"/><path class="cls-6" d="M262.14,334.85l-.22,0a.83.83,0,0,1-.58-1l9.28-34.17,13.21-9.37a.84.84,0,0,1,1,1.36l-12.73,9L263,334.23A.84.84,0,0,1,262.14,334.85Z"/><path class="cls-6" d="M267.68,168.94,288.82,211a122.25,122.25,0,0,1,19.05-12C292.68,169,267.68,168.94,267.68,168.94Z"/><path class="cls-16" d="M343.58,185s2-7,.22-8.77-7.64,9.22-7.64,9.22l-21.82,24.07c-2.16-3.84-4.33-7.3-6.47-10.44a122.25,122.25,0,0,0-19.05,12l11.79,23.46a14,14,0,0,0,24.45,1.13L348.52,198C350.25,192.62,348,188.45,343.58,185Z"/><path class="cls-16" d="M234.71,238.65c-1.08,4-1.63,6.5-1.63,6.5l.54,13.36s-22.71.42-29.41-7.84c-4.5-5.55-4-14.71,3.77-31.58,2-4.38,3.35-7.43,5.24-10.76A132.41,132.41,0,0,1,236.53,212l-11.89,24.24Z"/><path class="cls-6" d="M267.68,168.94s-33.14-1.82-54.45,39.38a125.25,125.25,0,0,1,29,5.4C248.34,196,257.19,176,267.68,168.94Z"/><path class="cls-6" d="M306,258l-72.36.56c-.49-8,.55-22,1.91-35.51.08-.77.15-1.52.23-2.29.6-5.85,1.25-11.54,1.86-16.46.18-1.59.36-3.1.53-4.5.89-7,1.52-11.63,1.52-11.63l28-19.17c13.17,4.16,32.11,28.91,32.11,28.91Z"/><polygon class="cls-6" points="346.65 177.06 337.24 197.78 339.62 198.98 350.63 179.06 346.65 177.06"/><path class="cls-8" d="M353.14,174.52l-4.34-2.18a7.49,7.49,0,0,1-.73,2.85l3.26,1.63A8.09,8.09,0,0,1,353.14,174.52Z"/><path class="cls-6" d="M348.07,175.19a6.19,6.19,0,0,1-1.42,1.87l4,2a6.24,6.24,0,0,1,.7-2.24Z"/><circle class="cls-6" cx="357.09" cy="161.25" r="14.46" transform="translate(-33.2 126.81) rotate(-19.26)"/><circle class="cls-10" cx="357.09" cy="161.25" r="11.29" transform="translate(0.68 323.99) rotate(-48.84)"/><path class="cls-4" d="M363.5,166a.8.8,0,0,1-.3-.06.84.84,0,0,1-.48-1.08c1.53-3.93.57-7.75-2.33-9.28a.84.84,0,0,1,.78-1.48c3.68,1.94,5,6.62,3.11,11.36A.84.84,0,0,1,363.5,166Z"/><path class="cls-11" d="M349.23,189c-1.63,1.25-3.57,1.87-4.42.94s.72-3.44,1.24-4.17c.73-1,3.93-4,5.27-2.35S351.18,187.54,349.23,189Z"/><path class="cls-11" d="M350.54,193.19c-1.63,1.25-3.57,1.87-4.42.94s.72-3.44,1.24-4.17c.73-1,3.93-4,5.27-2.35S352.49,191.7,350.54,193.19Z"/><path class="cls-11" d="M350.93,197.55c-1.46,1.12-3.19,1.67-3.95.85s.64-3.08,1.1-3.73c.66-.93,3.52-3.6,4.72-2.1S352.67,196.22,350.93,197.55Z"/><path class="cls-16" d="M226.7,258.3s18.2,1.84,18.53-.1-4-2.91-4-2.91,9,.39,8.72-1.25-4.16-2.77-4.16-2.77,6.31.17,5.65-1.64-6-3.15-6-3.15,8.38-1.52,5.19-3.14-20.59-5.6-20.59-5.6Z"/><path class="cls-11" d="M234.26,239.41a.68.68,0,0,1-.2,0l-16.66-4.11a.85.85,0,0,1-.61-1,.83.83,0,0,1,1-.61l16.66,4.11a.85.85,0,0,1,.61,1A.82.82,0,0,1,234.26,239.41Z"/><path class="cls-11" d="M309,215.85a.84.84,0,0,1-.62-1.4L323,198.55a.84.84,0,1,1,1.23,1.14L309.6,215.58A.82.82,0,0,1,309,215.85Z"/><path class="cls-5" d="M265.48,188.38a14,14,0,0,1-8.72-3.29.85.85,0,0,1,0-1.18.83.83,0,0,1,1.18,0c.34.31,8.31,7.44,17.23-2.05a.83.83,0,0,1,1.18,0,.84.84,0,0,1,0,1.18C272.46,187.1,268.67,188.38,265.48,188.38Z"/><path class="cls-8" d="M236.75,211.63c-.34,2.93-.67,6-1,9.08-.08.77-.15,1.52-.23,2.29,5.88-7.94,5.71-18,5.7-18.41A61.84,61.84,0,0,0,236.75,211.63Z"/><path class="cls-16" d="M275.48,150.28v21.05a9,9,0,1,1-18,0V150.28Z"/><path class="cls-8" d="M275.48,156V170.3a26.75,26.75,0,0,1-11.55-11.65Z"/><path class="cls-16" d="M280.76,136.41s7.32,33.92-16.84,22.23l-8.35-11.44,5.53-16.7,12.59-.77Z"/><path class="cls-17" d="M280.76,136.41s-17.09-13.75-23.26,10.28l-5.4-1s-4.56-18.42,11.82-21.84C278.06,120.86,280.76,136.41,280.76,136.41Z"/><ellipse class="cls-16" cx="255.73" cy="147.82" rx="4.35" ry="5.2" transform="translate(-29.62 224.12) rotate(-45)"/><path class="cls-8" d="M257.65,149.56a.45.45,0,0,1-.38-.23s-1.36-2.62-3.5-2.39a.42.42,0,0,1-.09-.83c2.71-.29,4.27,2.71,4.34,2.84a.43.43,0,0,1-.18.56A.45.45,0,0,1,257.65,149.56Z"/><circle class="cls-8" cx="278.53" cy="144.51" r="1.18"/><circle class="cls-8" cx="271.11" cy="144.62" r="1.18"/><path class="cls-8" d="M276.44,151.37a2.51,2.51,0,0,1-1-.18.42.42,0,0,1,.33-.77,2.06,2.06,0,0,0,1.11.08,1,1,0,0,0,.67-.36.55.55,0,0,0,.09-.47,4,4,0,0,0-1.74-1.83.42.42,0,0,1-.13-.57.41.41,0,0,1,.57-.14c.31.19,1.87,1.19,2.12,2.36a1.46,1.46,0,0,1-.21,1.12,1.81,1.81,0,0,1-1.25.72A4.35,4.35,0,0,1,276.44,151.37Z"/><path class="cls-8" d="M274.35,154.89a5.67,5.67,0,0,1-4-2,.42.42,0,1,1,.66-.52,4.35,4.35,0,0,0,4.62,1.47.42.42,0,0,1,.27.79A4.48,4.48,0,0,1,274.35,154.89Z"/><path class="cls-8" d="M273.36,141.11c-.27.71-1,.55-2.79.86-.4.07-2.52.58-2.63.14s.94-1.13,2.35-1.48a7.07,7.07,0,0,1,2.28-.19,1.57,1.57,0,0,1,.54.1A.42.42,0,0,1,273.36,141.11Z"/><path class="cls-8" d="M276.63,141.06c.22.71.92.56,2.49.86.36.08,2.26.58,2.36.15s-.82-1.13-2.08-1.49a5.92,5.92,0,0,0-2-.19,1.47,1.47,0,0,0-.49.11A.42.42,0,0,0,276.63,141.06Z"/><circle class="cls-13" cx="265.11" cy="148.09" r="2.82" transform="translate(60.07 372.08) rotate(-76.72)"/><path class="cls-4" d="M139.06,103.68a40.84,40.84,0,0,1,35.71,60.67l8.56,20.83-20.07-7.79a40.83,40.83,0,1,1-24.2-73.71Z"/><path class="cls-3" d="M184.85,186.67l-21.47-8.33a41.3,41.3,0,0,1-24.32,7.88,41.72,41.72,0,1,1,36.63-21.82Zm-45.79-82.15a40,40,0,1,0,23.7,72.2l.37-.27,18.69,7.25-8-19.41.2-.35a40,40,0,0,0-35-59.42Z"/><path class="cls-3" d="M133.65,159.57c0-2.87,2.25-5,5.4-5s5.4,2.14,5.4,5a5.41,5.41,0,0,1-10.8,0Z"/><polygon class="cls-3" points="133.81 124.86 144.28 124.86 142.54 150.57 135.56 150.57 133.81 124.86"/><path class="cls-3" d="M623.42,103.55a28.22,28.22,0,1,0,3.27,50.24L612.33,129.5Z"/><path class="cls-7" d="M623.07,132.84l14.35,24.29A27.78,27.78,0,0,0,645.5,150a28.23,28.23,0,0,0,2.84-29.66Z"/><path class="cls-10" d="M647.36,113.32a28.34,28.34,0,0,0-14.18-13.4l-11.09,26Z"/><polygon class="cls-3" points="323.89 87.49 250.67 87.49 250.67 49.31 252.35 49.31 252.35 85.81 323.89 85.81 323.89 87.49"/><polygon class="cls-3" points="258.68 81.42 257.26 80.54 264.01 69.69 268.65 77.28 278.39 56.48 288.36 75.3 315.35 49.57 316.5 50.78 287.91 78.04 278.48 60.23 268.84 80.8 264 72.88 258.68 81.42"/><rect class="cls-8" y="467.86" width="868.32" height="1.67"/></g></g></svg>