<svg xmlns="http://www.w3.org/2000/svg" viewBox="0 0 85.25 55"><defs><style>.cls-1{fill:#4833aa;}.cls-2{fill:#1a2541;}</style></defs><title>Asset 1</title><g id="Layer_2" data-name="Layer 2"><g id="Layer_1-2" data-name="Layer 1"><path class="cls-1" d="M21.26,12.87.57,48.71A4.19,4.19,0,0,0,4.2,55H45.59a4.19,4.19,0,0,0,3.63-6.29L28.52,12.87A4.19,4.19,0,0,0,21.26,12.87Z"/><path class="cls-2" d="M59.48,47a8.85,8.85,0,0,1-7.75-4.48L34.92,13.42A8.95,8.95,0,0,1,42.67,0H76.28A8.85,8.85,0,0,1,84,4.47a8.85,8.85,0,0,1,0,9L67.23,42.53A8.88,8.88,0,0,1,59.48,47ZM42.67,7.82a1.09,1.09,0,0,0-1,.56,1.08,1.08,0,0,0,0,1.13L58.5,38.62a1.12,1.12,0,0,0,2,0L77.26,9.51a1.08,1.08,0,0,0,0-1.13,1.09,1.09,0,0,0-1-.56Z"/></g></g></svg>